<svg width="32" height="32" viewBox="0 0 32 32" fill="none" xmlns="http://www.w3.org/2000/svg">
<rect width="32" height="32" fill="#F7E296"/>
<path fill-rule="evenodd" clip-rule="evenodd" d="M7 26.9969V5.00306H16.0304C17.4861 4.96826 18.9332 5.23104 20.2797 5.77467C21.6262 6.31831 22.8426 7.1309 23.8516 8.16075C24.8857 9.19322 25.6971 10.4195 26.2374 11.7664C26.7776 13.1133 27.0357 14.5531 26.996 16C27.0357 17.4469 26.7776 18.8867 26.2374 20.2336C25.6971 21.5805 24.8857 22.8068 23.8516 23.8392C22.8427 24.8692 21.6263 25.6818 20.2798 26.2255C18.9332 26.7691 17.4861 27.0318 16.0304 26.9969H7ZM12 21.9972V10.0028H15.9782C16.7701 9.97274 17.5599 10.1868 18.2971 10.4645C19.0342 10.7423 19.7024 11.1637 20.259 11.7019C20.8177 12.2783 21.2505 12.955 21.5319 13.6927C21.8134 14.4303 22.0351 15.2141 21.9954 15.9981C22.0351 16.7822 21.8134 17.5659 21.532 18.3036C21.2505 19.0412 20.8178 19.718 20.259 20.2943C19.7025 20.8326 19.0343 21.2542 18.2972 21.5319C17.56 21.8097 16.7702 22.0274 15.9782 21.9972H12.1661H12Z" fill="black"/>
</svg>
