<svg width="10" height="10" viewBox="0 0 10 10" fill="none" xmlns="http://www.w3.org/2000/svg">
<path d="M9.86203 2.52161C9.79266 2.43982 9.69329 2.39307 9.58915 2.39307H7.65761V3.41871C7.65761 3.88999 7.25347 4.27341 6.75671 4.27341C6.25996 4.27341 5.85581 3.88999 5.85581 3.41871V2.39307H4.05401V3.41871C4.05401 3.88999 3.64987 4.27341 3.15311 4.27341C2.65635 4.27341 2.25221 3.88999 2.25221 3.41871V2.39307H0.320768C0.216534 2.39307 0.117164 2.43982 0.0477949 2.52161C-0.0216646 2.60341 -0.0545475 2.71247 -0.0426556 2.82136L0.605543 8.78452C0.617615 9.45683 1.14167 9.9999 1.78419 9.9999H8.12572C8.76815 9.9999 9.29221 9.45683 9.30437 8.78443L9.95257 2.82127C9.96437 2.71247 9.93149 2.60341 9.86203 2.52161Z" fill="#FFC600"/>
<path d="M3.15309 3.76068C3.35182 3.76068 3.51345 3.60735 3.51345 3.4188V1.53846C3.51345 1.01051 4.07462 0.683761 4.59453 0.683761H5.49543C6.04264 0.683761 6.39633 1.01923 6.39633 1.53846V3.4188C6.39633 3.60735 6.55804 3.76068 6.75669 3.76068C6.95534 3.76068 7.11705 3.60735 7.11705 3.4188V1.53846C7.11705 0.647009 6.43507 0 5.49543 0H4.59453C3.60101 0 2.79272 0.690171 2.79272 1.53846V3.4188C2.79272 3.60735 2.95435 3.76068 3.15309 3.76068Z" fill="#FFC600"/>
</svg>
