<svg width="123" height="42" viewBox="0 0 123 42" fill="none" xmlns="http://www.w3.org/2000/svg">
<g clip-path="url(#clip0)" filter="url(#filter0_d)">
<path d="M4 12.8806V15.4567H6.45789V12.8806H4Z" fill="#F0C52E"/>
<path d="M15.6465 4.52965C14.0863 4.52965 12.8253 5.23807 12.0345 6.26851H11.949V0H9.91858V15.4566H11.949V10.1541C11.949 8.02886 13.2741 6.50466 15.2191 6.50466C17.0571 6.50466 18.1258 7.87858 18.1258 9.72478V15.4566H20.1562V9.35984C20.1562 6.41878 18.3395 4.52965 15.6465 4.52965Z" fill="#F0C52E"/>
<path d="M30.6171 4.8303H25.8082V1.07349H23.7778V4.8303H21.8542V6.80531H23.7778V12.7947C23.7778 14.5121 24.7396 15.4567 26.4708 15.4567H30.6171V13.4602H26.8769C26.193 13.4602 25.8082 13.0738 25.8082 12.4083V6.80531H30.6171V4.8303Z" fill="#F0C52E"/>
<path d="M45.1216 4.55103C43.4971 4.55103 42.2577 5.34532 41.5737 6.61191H41.5096C40.8897 5.3668 39.7356 4.55103 38.1541 4.55103C36.7434 4.55103 35.6747 5.30238 35.0336 6.35431H34.948V4.83011H33.0032V15.4565H35.0336V10.0038C35.0336 8.00729 36.0807 6.54752 37.6625 6.50458C39.1584 6.46164 40.0348 7.53502 40.0348 9.14507V15.4565H42.0653V9.83203C42.0653 7.44915 43.4759 6.50458 44.6941 6.50458C46.1689 6.50458 47.0452 7.53502 47.0452 9.14507V15.4565H49.0754V8.9304C49.0754 6.35431 47.6222 4.55103 45.1216 4.55103Z" fill="#F0C52E"/>
<path d="M51.8271 12.7088C51.8271 14.4476 52.8103 15.4566 54.6269 15.4566H56.6359V13.4816H54.9261C54.2421 13.4816 53.8574 13.0952 53.8574 12.4297V0H51.8271V12.7088Z" fill="#F0C52E"/>
<path d="M32.9048 19.7063H32.8192C32.027 18.6392 30.7425 17.8923 29.0295 17.8709C25.882 17.8282 23.6338 20.1544 23.6338 23.441C23.6338 26.749 25.9248 29.0752 29.008 29.0326C30.7637 29.0111 32.027 28.2215 32.8192 27.0903H32.9048V28.7336H34.9177V18.1697H32.9048V19.7063ZM29.3077 27.0691C27.081 27.0691 25.6679 25.4471 25.6679 23.441C25.6679 21.435 27.081 19.813 29.3077 19.813C31.4703 19.813 32.8836 21.435 32.8836 23.441C32.8836 25.4259 31.4703 27.0691 29.3077 27.0691Z" fill="#F0C52E"/>
<path d="M48.2095 22.0111C47.717 19.6208 45.5973 17.8708 42.8139 17.8708C39.4524 17.8708 37.2042 20.3251 37.2042 23.4409C37.2042 26.5567 39.4524 29.0325 42.8139 29.0325C45.5973 29.0325 47.717 27.2397 48.2095 24.8281H46.0898C45.6617 26.1727 44.3984 27.0903 42.8354 27.0903C40.6513 27.0903 39.2381 25.447 39.2381 23.4409C39.2381 21.4349 40.6513 19.8129 42.8354 19.8129C44.4625 19.8129 45.6617 20.7733 46.0898 22.0111H48.2095Z" fill="#F0C52E"/>
<path d="M59.0836 19.7063H58.998C58.2058 18.6392 56.921 17.8923 55.2081 17.8709C52.0607 17.8282 49.8125 20.1544 49.8125 23.441C49.8125 26.749 52.1036 29.0752 55.1866 29.0326C56.9425 29.0111 58.2058 28.2215 58.998 27.0903H59.0836V28.7336H61.0962V18.1697H59.0836V19.7063ZM55.4866 27.0691C53.2596 27.0691 51.8466 25.4471 51.8466 23.441C51.8466 21.435 53.2596 19.813 55.4866 19.813C57.6491 19.813 59.0622 21.435 59.0622 23.441C59.0622 25.4259 57.6491 27.0691 55.4866 27.0691Z" fill="#F0C52E"/>
<path d="M72.6538 19.813H72.5682C71.776 18.6819 70.4483 17.8923 68.7568 17.871C65.6738 17.8283 63.3827 20.1545 63.3827 23.4624C63.3827 26.749 65.6309 29.0753 68.7783 29.0326C70.4483 29.0111 71.776 28.2642 72.5468 27.1972H72.6538V28.7336H74.6665V13.3679H72.6538V19.813ZM69.0568 27.0904C66.8298 27.0904 65.4168 25.4685 65.4168 23.4624C65.4168 21.4563 66.8298 19.8343 69.0568 19.8343C71.2193 19.8343 72.6324 21.4776 72.6324 23.4624C72.6324 25.4685 71.2193 27.0904 69.0568 27.0904Z" fill="#F0C52E"/>
<path d="M82.3297 17.8708C79.0752 17.8708 76.8483 20.3678 76.8483 23.4623C76.8483 26.4714 78.9467 29.0325 82.3724 29.0325C84.8561 29.0325 86.8475 27.6879 87.5541 25.447H85.4342C84.9634 26.4502 83.8286 27.0903 82.4582 27.0903C80.5312 27.0903 79.1608 25.8098 79.0108 24.1666H87.7682C88.0464 20.6452 85.8412 17.8708 82.3297 17.8708ZM82.2868 19.8129C83.9783 19.8129 85.2416 20.8586 85.5627 22.3739H79.0538C79.3534 20.88 80.6168 19.8129 82.2868 19.8129Z" fill="#F0C52E"/>
<path d="M102.198 17.8921C100.571 17.8921 99.3295 18.6817 98.6443 19.9409H98.5799C97.9591 18.703 96.8029 17.8921 95.2184 17.8921C93.8054 17.8921 92.7347 18.639 92.0924 19.6848H92.0068V18.1695H90.0583V28.7334H92.0924V23.3128C92.0924 21.328 93.1417 19.8768 94.7261 19.8341C96.2247 19.7915 97.1028 20.8585 97.1028 22.4591V28.7334H99.1368V23.1421C99.1368 20.7732 100.55 19.8341 101.77 19.8341C103.248 19.8341 104.125 20.8585 104.125 22.4591V28.7334H106.16V22.2457C106.16 19.6848 104.704 17.8921 102.198 17.8921Z" fill="#F0C52E"/>
<path d="M113.441 27.0477L109.801 18.1697H107.553L112.392 29.7368L112.371 29.7794C112.028 30.6544 111.643 30.9745 110.701 30.9745H108.196V33.0019H110.701C112.542 33.0019 113.527 32.1696 114.212 30.3769L118.88 18.1697H116.803L113.441 27.0477Z" fill="#F0C52E"/>
</g>
<defs>
<filter id="filter0_d" x="0" y="0" width="123" height="41.0294" filterUnits="userSpaceOnUse" color-interpolation-filters="sRGB">
<feFlood flood-opacity="0" result="BackgroundImageFix"/>
<feColorMatrix in="SourceAlpha" type="matrix" values="0 0 0 0 0 0 0 0 0 0 0 0 0 0 0 0 0 0 127 0"/>
<feOffset dy="4"/>
<feGaussianBlur stdDeviation="2"/>
<feColorMatrix type="matrix" values="0 0 0 0 0 0 0 0 0 0 0 0 0 0 0 0 0 0 0.25 0"/>
<feBlend mode="normal" in2="BackgroundImageFix" result="effect1_dropShadow"/>
<feBlend mode="normal" in="SourceGraphic" in2="effect1_dropShadow" result="shape"/>
</filter>
<clipPath id="clip0">
<rect width="115" height="33.0294" fill="white" transform="translate(4)"/>
</clipPath>
</defs>
</svg>
