<svg width="97" height="55" viewBox="0 0 97 55" fill="none" xmlns="http://www.w3.org/2000/svg">
<g clip-path="url(#clip0)">
<path d="M84.131 32.639V20.003C84.131 18.694 85.176 17.633 86.466 17.633L94.792 19.2141V11.02C94.792 8.66505 93.084 7.58905 90.59 6.75505L67.403 0.175049C69.019 1.56605 69.292 2.21505 69.292 4.57105V49.78C69.292 52.136 68.842 53.8461 67.325 54.9901L90.59 47.925C92.991 47.092 94.792 43.709 94.792 41.3531V33.44L86.466 35.007C85.176 35.009 84.131 33.947 84.131 32.639Z" fill="#363636"/>
<path d="M95.129 20.979L87.531 19.535C86.523 19.535 85.707 20.364 85.707 21.386V31.254C85.707 32.277 86.523 33.106 87.531 33.106L95.129 31.675C96.283 31.256 96.953 30.846 96.953 29.823V22.83C96.953 21.808 96.187 21.323 95.129 20.979Z" fill="#363636"/>
<path d="M67.17 4.48303C67.17 -0.596972 62.938 0.0240287 62.938 0.0240287C62.938 0.0240287 5.832 4.73803 2.838 5.14503C-0.155997 5.55203 0.00100259 9.53203 0.00100259 9.53203C0.00100259 9.53203 2.59155e-06 42.069 2.59155e-06 45.812C2.59155e-06 49.555 2.599 49.565 2.599 49.565L19.076 50.968L27.212 39.3C27.212 39.3 28.321 37.472 29.717 37.472C31.114 37.472 32.149 39.333 32.149 39.333L41.21 52.854C41.21 52.854 60.105 54.763 63.731 54.763C67.357 54.762 67.17 49.739 67.17 49.739C67.17 49.739 67.17 9.56303 67.17 4.48303ZM12.982 37.192C9.284 37.192 6.286 32.591 6.286 26.917C6.286 21.243 9.284 16.642 12.982 16.642C16.68 16.642 19.678 21.243 19.678 26.917C19.678 32.591 16.68 37.192 12.982 37.192ZM49.14 38.618C44.478 38.618 40.699 33.379 40.699 26.917C40.699 20.454 44.479 15.215 49.14 15.215C53.802 15.215 57.582 20.454 57.582 26.917C57.582 33.379 53.802 38.618 49.14 38.618Z" fill="#363636"/>
</g>
<defs>
<clipPath id="clip0">
<rect width="97" height="55" fill="white"/>
</clipPath>
</defs>
</svg>
